HIERARCHY
ROOT newVegas:Hips
{
	OFFSET 0.000000 96.479958 0.000000
	CHANNELS 6 Xposition Yposition Zposition Xrotation Yrotation Zrotation
	JOINT newVegas:Pelvis
	{
		OFFSET 0.000000 0.000000 0.000000
		CHANNELS 3 Xrotation Yrotation Zrotation
		JOINT newVegas:LeftUpLeg
		{
			OFFSET 18.735201 -5.666702 -4.541200
			CHANNELS 3 Xrotation Yrotation Zrotation
			JOINT newVegas:LeftLeg
			{
				OFFSET -0.021200 -31.938179 0.493100
				CHANNELS 3 Xrotation Yrotation Zrotation
				JOINT newVegas:LeftFoot
				{
					OFFSET 0.021200 -31.938179 -4.336299
					CHANNELS 3 Xrotation Yrotation Zrotation
					JOINT newVegas:LeftToeBase
					{
						OFFSET 0.943001 -26.722000 15.023500
						CHANNELS 3 Xrotation Yrotation Zrotation
						End Site
						{
							OFFSET 0.000000 30.670183 0.000000
						}
					}
				}
				JOINT newVegas:Left_PantLeg
				{
					OFFSET 0.663870 -9.044666 -1.108900
					CHANNELS 3 Xrotation Yrotation Zrotation
					End Site
					{
						OFFSET 1.415995 20.635357 0.000000
					}
				}
			}
		}
		JOINT newVegas:RightUpLeg
		{
			OFFSET -18.735201 -5.666702 -4.541200
			CHANNELS 3 Xrotation Yrotation Zrotation
			JOINT newVegas:RightLeg
			{
				OFFSET 0.018946 -31.938133 0.493100
				CHANNELS 3 Xrotation Yrotation Zrotation
				JOINT newVegas:RightFoot
				{
					OFFSET -0.018946 -31.938126 -4.336299
					CHANNELS 3 Xrotation Yrotation Zrotation
					JOINT newVegas:RightToeBase
					{
						OFFSET -0.943001 -26.722004 15.023500
						CHANNELS 3 Xrotation Yrotation Zrotation
						End Site
						{
							OFFSET 0.000000 30.670187 0.000000
						}
					}
				}
				JOINT newVegas:Right_PantLeg
				{
					OFFSET -0.661674 -9.044716 -1.108900
					CHANNELS 3 Xrotation Yrotation Zrotation
					End Site
					{
						OFFSET -1.415958 20.635269 0.000000
					}
				}
			}
		}
	}
	JOINT newVegas:Spine
	{
		OFFSET 0.000000 10.199997 -0.299500
		CHANNELS 3 Xrotation Yrotation Zrotation
		JOINT newVegas:Spine1
		{
			OFFSET 0.000000 11.900002 -1.516600
			CHANNELS 3 Xrotation Yrotation Zrotation
			JOINT newVegas:Spine2
			{
				OFFSET 0.000000 13.600006 -2.842500
				CHANNELS 3 Xrotation Yrotation Zrotation
				JOINT newVegas:Neck
				{
					OFFSET 0.000000 9.624100 -2.890100
					CHANNELS 3 Xrotation Yrotation Zrotation
					JOINT newVegas:Head
					{
						OFFSET 0.000000 14.068802 -1.351900
						CHANNELS 3 Xrotation Yrotation Zrotation
						JOINT newVegas:Hair_Back
						{
							OFFSET 0.000000 3.231903 -17.524799
							CHANNELS 3 Xrotation Yrotation Zrotation
							End Site
							{
								OFFSET 0.000000 19.849884 0.000000
							}
						}
						JOINT newVegas:Hair_Front
						{
							OFFSET 0.000000 31.260406 4.573800
							CHANNELS 3 Xrotation Yrotation Zrotation
							JOINT newVegas:Hair_Front1
							{
								OFFSET 0.000000 2.284103 11.993300
								CHANNELS 3 Xrotation Yrotation Zrotation
								JOINT newVegas:Hair_Front2
								{
									OFFSET 0.000000 2.284103 11.993300
									CHANNELS 3 Xrotation Yrotation Zrotation
									End Site
									{
										OFFSET 0.000000 12.208862 0.000000
									}
								}
							}
						}
						JOINT newVegas:Jowel
						{
							OFFSET 0.000000 -7.458206 6.864100
							CHANNELS 3 Xrotation Yrotation Zrotation
							End Site
							{
								OFFSET 0.000000 19.849884 0.000000
							}
						}
					}
				}
				JOINT newVegas:LeftShoulder
				{
					OFFSET 15.263000 10.923401 -0.547700
					CHANNELS 3 Xrotation Yrotation Zrotation
					JOINT newVegas:LeftArm
					{
						OFFSET 25.438599 -2.830597 -13.032500
						CHANNELS 3 Xrotation Yrotation Zrotation
						JOINT newVegas:LeftForeArm
						{
							OFFSET 29.960503 0.000000 0.000000
							CHANNELS 3 Xrotation Yrotation Zrotation
							JOINT newVegas:LeftHand
							{
								OFFSET 27.849251 0.000000 0.000000
								CHANNELS 3 Xrotation Yrotation Zrotation
								JOINT newVegas:LeftHandThumb1
								{
									OFFSET 4.487587 -3.305161 6.305391
									CHANNELS 3 Xrotation Yrotation Zrotation
									JOINT newVegas:LeftHandThumb2
									{
										OFFSET 5.480453 -3.164139 3.164143
										CHANNELS 3 Xrotation Yrotation Zrotation
										JOINT newVegas:LeftHandThumb3
										{
											OFFSET 5.159721 -2.978973 2.978967
											CHANNELS 3 Xrotation Yrotation Zrotation
											End Site
											{
												OFFSET 2.494507 5.926697 1.738678
											}
										}
									}
								}
								JOINT newVegas:LeftHandIndex1
								{
									OFFSET 18.578728 -0.527832 5.208049
									CHANNELS 3 Xrotation Yrotation Zrotation
									JOINT newVegas:LeftHandIndex2
									{
										OFFSET 3.192009 0.000000 0.000000
										CHANNELS 3 Xrotation Yrotation Zrotation
										JOINT newVegas:LeftHandIndex3
										{
											OFFSET 3.835129 0.000000 0.000000
											CHANNELS 3 Xrotation Yrotation Zrotation
											End Site
											{
												OFFSET -0.034599 3.816971 0.371180
											}
										}
									}
								}
								JOINT newVegas:LeftHandMiddle1
								{
									OFFSET 18.476105 0.000000 0.000000
									CHANNELS 3 Xrotation Yrotation Zrotation
									JOINT newVegas:LeftHandMiddle2
									{
										OFFSET 3.324875 0.000000 0.000000
										CHANNELS 3 Xrotation Yrotation Zrotation
										JOINT newVegas:LeftHandMiddle3
										{
											OFFSET 4.596550 0.000000 0.000000
											CHANNELS 3 Xrotation Yrotation Zrotation
											End Site
											{
												OFFSET 0.057701 4.578827 0.399218
											}
										}
									}
								}
								JOINT newVegas:LeftHandRing1
								{
									OFFSET 17.732719 0.121887 -4.201567
									CHANNELS 3 Xrotation Yrotation Zrotation
									JOINT newVegas:LeftHandRing2
									{
										OFFSET 2.733170 0.000000 0.000000
										CHANNELS 3 Xrotation Yrotation Zrotation
										JOINT newVegas:LeftHandRing3
										{
											OFFSET 3.178268 0.000000 0.000000
											CHANNELS 3 Xrotation Yrotation Zrotation
											End Site
											{
												OFFSET 0.119102 3.170624 0.185394
											}
										}
									}
								}
								JOINT newVegas:LeftHandPinky1
								{
									OFFSET 15.989624 -0.606689 -7.535461
									CHANNELS 3 Xrotation Yrotation Zrotation
									JOINT newVegas:LeftHandPinky2
									{
										OFFSET 2.538986 0.000000 0.000000
										CHANNELS 3 Xrotation Yrotation Zrotation
										JOINT newVegas:LeftHandPinky3
										{
											OFFSET 2.593102 0.000000 0.000000
											CHANNELS 3 Xrotation Yrotation Zrotation
											End Site
											{
												OFFSET -0.150902 2.584198 0.152708
											}
										}
									}
								}
							}
							JOINT newVegas:Left_Sleeve
							{
								OFFSET 0.267448 -0.649796 0.577675
								CHANNELS 3 Xrotation Yrotation Zrotation
								End Site
								{
									OFFSET 0.000000 15.991241 0.000000
								}
							}
							JOINT newVegas:Left_CapeC
							{
								OFFSET 15.715958 -8.608795 -6.935905
								CHANNELS 3 Xrotation Yrotation Zrotation
								JOINT newVegas:Left_CapeC1
								{
									OFFSET 0.000000 -8.688499 0.000000
									CHANNELS 3 Xrotation Yrotation Zrotation
									End Site
									{
										OFFSET 0.000000 8.688499 0.000000
									}
								}
							}
						}
						JOINT newVegas:Left_CapeB
						{
							OFFSET 26.118385 -8.608795 -7.079235
							CHANNELS 3 Xrotation Yrotation Zrotation
							JOINT newVegas:Left_CapeB1
							{
								OFFSET 0.000000 -8.688499 0.000000
								CHANNELS 3 Xrotation Yrotation Zrotation
								End Site
								{
									OFFSET 0.000000 8.688499 0.000000
								}
							}
						}
						JOINT newVegas:Left_CapeA
						{
							OFFSET 5.115639 -8.608795 -10.395809
							CHANNELS 3 Xrotation Yrotation Zrotation
							JOINT newVegas:Left_CapeA1
							{
								OFFSET 0.000000 -8.688499 0.000000
								CHANNELS 3 Xrotation Yrotation Zrotation
								End Site
								{
									OFFSET 0.000000 8.688499 0.000000
								}
							}
						}
					}
				}
				JOINT newVegas:RightShoulder
				{
					OFFSET -15.263000 10.923401 -0.547700
					CHANNELS 3 Xrotation Yrotation Zrotation
					JOINT newVegas:RightArm
					{
						OFFSET -25.438599 -2.830597 -13.032500
						CHANNELS 3 Xrotation Yrotation Zrotation
						JOINT newVegas:RightForeArm
						{
							OFFSET -29.960503 0.000000 0.000000
							CHANNELS 3 Xrotation Yrotation Zrotation
							JOINT newVegas:RightHand
							{
								OFFSET -27.849251 0.000000 0.000000
								CHANNELS 3 Xrotation Yrotation Zrotation
								JOINT newVegas:RightHandThumb1
								{
									OFFSET -4.487587 -3.305161 6.305391
									CHANNELS 3 Xrotation Yrotation Zrotation
									JOINT newVegas:RightHandThumb2
									{
										OFFSET -5.480453 -3.164139 3.164143
										CHANNELS 3 Xrotation Yrotation Zrotation
										JOINT newVegas:RightHandThumb3
										{
											OFFSET -5.159721 -2.978973 2.978967
											CHANNELS 3 Xrotation Yrotation Zrotation
											End Site
											{
												OFFSET -2.494507 5.926697 1.738678
											}
										}
									}
								}
								JOINT newVegas:RightHandIndex1
								{
									OFFSET -18.578728 -0.527832 5.208049
									CHANNELS 3 Xrotation Yrotation Zrotation
									JOINT newVegas:RightHandIndex2
									{
										OFFSET -3.192009 0.000000 0.000000
										CHANNELS 3 Xrotation Yrotation Zrotation
										JOINT newVegas:RightHandIndex3
										{
											OFFSET -3.835129 0.000000 0.000000
											CHANNELS 3 Xrotation Yrotation Zrotation
											End Site
											{
												OFFSET 0.034599 3.816971 0.371180
											}
										}
									}
								}
								JOINT newVegas:RightHandMiddle1
								{
									OFFSET -18.476105 0.000000 0.000000
									CHANNELS 3 Xrotation Yrotation Zrotation
									JOINT newVegas:RightHandMiddle2
									{
										OFFSET -3.324875 0.000000 0.000000
										CHANNELS 3 Xrotation Yrotation Zrotation
										JOINT newVegas:RightHandMiddle3
										{
											OFFSET -4.596550 0.000000 0.000000
											CHANNELS 3 Xrotation Yrotation Zrotation
											End Site
											{
												OFFSET -0.057701 4.578827 0.399218
											}
										}
									}
								}
								JOINT newVegas:RightHandRing1
								{
									OFFSET -17.732719 0.121887 -4.201567
									CHANNELS 3 Xrotation Yrotation Zrotation
									JOINT newVegas:RightHandRing2
									{
										OFFSET -2.733170 0.000000 0.000000
										CHANNELS 3 Xrotation Yrotation Zrotation
										JOINT newVegas:RightHandRing3
										{
											OFFSET -3.178268 0.000000 0.000000
											CHANNELS 3 Xrotation Yrotation Zrotation
											End Site
											{
												OFFSET -0.119102 3.170624 0.185394
											}
										}
									}
								}
								JOINT newVegas:RightHandPinky1
								{
									OFFSET -15.989624 -0.606689 -7.535461
									CHANNELS 3 Xrotation Yrotation Zrotation
									JOINT newVegas:RightHandPinky2
									{
										OFFSET -2.538986 0.000000 0.000000
										CHANNELS 3 Xrotation Yrotation Zrotation
										JOINT newVegas:RightHandPinky3
										{
											OFFSET -2.593102 0.000000 0.000000
											CHANNELS 3 Xrotation Yrotation Zrotation
											End Site
											{
												OFFSET 0.150902 2.584198 0.152708
											}
										}
									}
								}
							}
							JOINT newVegas:Right_CapeC
							{
								OFFSET -15.715958 -8.608795 -6.935905
								CHANNELS 3 Xrotation Yrotation Zrotation
								JOINT newVegas:Right_CapeC1
								{
									OFFSET 0.000000 -8.688499 0.000000
									CHANNELS 3 Xrotation Yrotation Zrotation
									End Site
									{
										OFFSET 0.000000 8.688499 0.000000
									}
								}
							}
							JOINT newVegas:Right_Sleeve
							{
								OFFSET -0.267448 -0.649994 0.577675
								CHANNELS 3 Xrotation Yrotation Zrotation
								End Site
								{
									OFFSET 0.000000 15.991302 0.000000
								}
							}
						}
						JOINT newVegas:Right_CapeA
						{
							OFFSET -5.115540 -8.608795 -10.395824
							CHANNELS 3 Xrotation Yrotation Zrotation
							JOINT newVegas:Right_CapeA1
							{
								OFFSET 0.000000 -8.688499 0.000000
								CHANNELS 3 Xrotation Yrotation Zrotation
								End Site
								{
									OFFSET 0.000000 8.688499 0.000000
								}
							}
						}
						JOINT newVegas:Right_CapeB
						{
							OFFSET -26.118187 -8.608795 -7.079266
							CHANNELS 3 Xrotation Yrotation Zrotation
							JOINT newVegas:Right_CapeB1
							{
								OFFSET 0.000000 -8.688499 0.000000
								CHANNELS 3 Xrotation Yrotation Zrotation
								End Site
								{
									OFFSET 0.000000 8.688499 0.000000
								}
							}
						}
					}
				}
				JOINT newVegas:Left_Collar
				{
					OFFSET 18.625099 8.655502 8.828100
					CHANNELS 3 Xrotation Yrotation Zrotation
					JOINT newVegas:Left_Collar1
					{
						OFFSET 14.783401 10.540405 -1.259500
						CHANNELS 3 Xrotation Yrotation Zrotation
						End Site
						{
							OFFSET 0.000000 18.199875 0.000000
						}
					}
				}
				JOINT newVegas:Collar_Back
				{
					OFFSET 0.000000 15.630707 -20.132601
					CHANNELS 3 Xrotation Yrotation Zrotation
					End Site
					{
						OFFSET 0.000000 22.523010 0.000000
					}
				}
				JOINT newVegas:Left_Peck
				{
					OFFSET 17.239599 -5.132599 25.482599
					CHANNELS 3 Xrotation Yrotation Zrotation
					End Site
					{
						OFFSET 0.000000 22.523010 0.000000
					}
				}
				JOINT newVegas:Right_Peck
				{
					OFFSET -17.239599 -5.132202 25.482599
					CHANNELS 3 Xrotation Yrotation Zrotation
					End Site
					{
						OFFSET 0.000000 22.523010 0.000000
					}
				}
				JOINT newVegas:Right_Collar
				{
					OFFSET -18.625099 8.655792 8.828100
					CHANNELS 3 Xrotation Yrotation Zrotation
					JOINT newVegas:Right_Collar1
					{
						OFFSET -14.783401 10.539993 -1.259500
						CHANNELS 3 Xrotation Yrotation Zrotation
						End Site
						{
							OFFSET 0.000000 18.199631 0.000000
						}
					}
				}
			}
		}
		JOINT newVegas:Belly
		{
			OFFSET 0.000000 -6.540398 9.014299
			CHANNELS 3 Xrotation Yrotation Zrotation
			End Site
			{
				OFFSET 0.000000 11.566666 0.000000
			}
		}
	}
	JOINT newVegas:ElvisFacialAnim_Joint
	{
		OFFSET 1.000000 -95.330101 -8.825800
		CHANNELS 3 Xrotation Yrotation Zrotation
		End Site
		{
			OFFSET 0.000000 35.315800 0.000000
		}
	}
}
MOTION
Frames: 4
Frame Time: 0.033333
0.430178 85.113144 1.176205 -10.965299 -54.668773 -3.128369 -0.000000 0.000000 -0.000000 -25.771835 12.047544 24.970784 42.471793 -5.387287 -1.046458 -6.683394 2.321389 -18.489898 0.000000 -0.000003 0.000000 -0.000000 0.000001 0.000001 -28.445322 3.789929 -24.387826 58.683694 4.887484 -8.447204 -20.614119 -5.386558 20.856874 0.000000 0.000001 0.000000 -0.000001 0.000001 -0.000002 6.697202 0.912179 -2.290752 13.440115 1.505908 -5.282122 13.440118 1.505931 -5.282126 1.595511 1.046838 -0.164660 1.595503 1.046848 -0.164670 -0.000000 0.000003 -0.000000 1.595505 1.046844 -0.164662 1.595529 1.046818 -0.164653 -0.000000 -0.000001 0.000000 -0.000000 0.000003 -0.000001 -0.171655 -6.033454 5.204538 -21.071668 17.785760 -57.231487 0.000030 -126.318748 0.000023 -6.641488 -5.398314 -3.626831 -2.154141 6.800143 9.892476 25.836090 36.182466 -25.085222 0.000004 0.000000 -0.000004 20.887357 7.645991 -92.409618 7.469760 5.623441 -106.086853 -0.000002 0.000001 0.000001 12.668631 7.118909 -99.980453 7.120920 5.712051 -102.555994 0.000004 0.000001 0.000001 5.682270 8.252684 -95.779470 8.216152 5.353264 -113.878760 0.000001 -0.000001 -0.000001 -3.644694 8.906865 -93.940018 7.168147 5.701364 -103.031061 -0.000001 -0.000002 -0.000001 0.000001 0.000001 0.000002 0.000001 0.000001 0.000002 0.000001 0.000002 0.000002 -0.000002 -0.000001 -0.000003 -0.000002 -0.000001 -0.000006 -0.000002 -0.000001 -0.000003 -0.000003 0.000000 -0.000004 10.920988 26.931077 3.130382 -46.478187 38.185860 48.496098 0.000128 110.564500 -0.000141 -26.511560 16.043022 15.588619 -8.123073 -3.695122 -18.700510 26.149313 -37.962109 25.226192 0.000003 -0.000000 -0.000001 19.570637 -6.576498 91.648530 5.944058 -4.476207 106.057654 -0.000000 -0.000001 -0.000001 11.200843 -5.955884 99.192699 5.666691 -4.546662 102.532710 -0.000003 -0.000000 0.000001 4.287409 -6.986183 95.001600 6.537656 -4.261389 113.838128 -0.000001 0.000002 -0.000001 -5.006073 -7.516102 93.188130 5.704227 -4.538163 103.006984 0.000000 0.000003 -0.000000 -0.000001 0.000003 0.000001 -0.000001 -0.000001 0.000003 -0.000001 0.000002 -0.000001 -0.000000 -0.000002 0.000005 -0.000001 -0.000002 0.000005 -0.000000 -0.000002 0.000005 -0.000001 -0.000002 0.000006 -0.000000 -0.000001 0.000000 -0.000000 -0.000001 0.000000 -0.000000 -0.000001 0.000000 -0.000000 -0.000001 0.000000 -0.000000 -0.000001 0.000000 -0.000000 -0.000001 0.000000 -0.000000 -0.000001 0.000000 -0.000000 -0.000001 0.000000 -0.000000 0.000000 -0.000000 
0.451389 84.744774 1.432502 -11.587728 -54.366714 -3.688729 0.000001 0.000000 -0.000001 -26.167826 11.559291 24.961512 44.307089 -5.693851 -0.814106 -7.876999 2.463173 -18.417745 0.000000 0.000001 -0.000000 -0.000001 -0.000000 0.000001 -28.201673 3.872872 -24.754108 59.622907 4.868950 -8.394080 -21.235755 -5.451895 21.083812 0.000000 -0.000001 -0.000000 0.000002 0.000002 0.000001 6.706349 0.893036 -2.263075 13.480907 1.478138 -5.232718 13.481368 1.476907 -5.233516 1.619993 1.014110 -0.117302 1.619995 1.014118 -0.117305 0.000001 0.000001 -0.000000 1.619919 1.014129 -0.117303 1.620093 1.014095 -0.117300 -0.000002 0.000003 -0.000000 0.000001 0.000001 -0.000001 -0.176184 -5.930558 5.284525 -20.934497 17.282120 -57.285275 0.000000 -126.257399 0.000006 -6.850360 -5.798075 -3.784134 -2.112002 6.877262 9.859393 25.873880 36.124932 -25.042197 0.000002 0.000000 -0.000004 19.629754 8.570116 -88.758759 7.288479 5.672337 -104.245107 -0.000002 0.000002 -0.000000 11.936378 7.494276 -97.261163 6.926371 5.751717 -100.608208 0.000003 0.000000 0.000001 5.023315 8.243098 -92.465933 7.984068 5.449670 -111.413745 0.000004 -0.000002 0.000000 -4.292145 8.605650 -92.038466 7.248722 5.682211 -103.843526 0.000003 0.000000 -0.000001 -0.000000 -0.000002 -0.000002 -0.000000 -0.000002 -0.000002 -0.000001 -0.000002 -0.000002 0.000002 -0.000001 0.000001 0.000003 -0.000001 -0.000002 0.000002 -0.000001 0.000001 0.000001 -0.000000 0.000001 10.896014 26.921614 3.201263 -46.379160 37.995680 48.220531 0.000052 110.604983 -0.000045 -26.575294 15.908648 15.547657 -8.695324 -3.067920 -19.415038 25.974666 -36.927930 25.210288 0.000000 0.000000 -0.000002 19.122279 -6.875566 90.508346 5.738514 -4.530158 103.440182 0.000001 0.000001 -0.000001 10.809118 -6.150279 97.823130 5.486292 -4.582920 100.266398 0.000002 -0.000001 0.000000 4.132800 -6.973715 93.379525 6.466338 -4.292094 112.881956 0.000002 0.000004 -0.000002 -5.225791 -7.290502 91.844236 5.300413 -4.612597 97.947877 0.000002 0.000001 0.000006 -0.000002 -0.000001 0.000002 -0.000002 -0.000001 0.000002 -0.000002 -0.000001 0.000002 0.000001 -0.000001 0.000003 -0.000000 -0.000001 0.000002 0.000001 -0.000001 0.000003 0.000000 -0.000001 0.000003 0.000002 -0.000002 -0.000001 0.000002 -0.000002 -0.000001 0.000002 -0.000002 -0.000001 0.000002 -0.000002 -0.000001 0.000002 -0.000002 -0.000001 0.000002 -0.000002 -0.000001 0.000002 -0.000002 -0.000001 -0.000000 0.000001 0.000000 0.000001 0.000000 -0.000001 
0.599228 84.300217 1.918219 -12.581573 -53.543157 -4.451435 -0.000000 0.000000 0.000000 -26.731634 10.429305 24.250226 46.888740 -5.918163 -0.162432 -8.994586 2.808661 -18.388587 0.000000 -0.000001 -0.000000 -0.000001 -0.000001 -0.000001 -27.324967 3.800198 -25.809617 60.454428 4.787980 -8.171130 -21.940682 -5.460662 21.786116 0.000000 0.000002 -0.000000 0.000000 0.000000 -0.000001 6.769741 0.796395 -2.238033 13.583925 1.316934 -5.210965 13.586645 1.310948 -5.213552 1.614884 0.950691 0.013056 1.614877 0.950698 0.013050 -0.000000 -0.000000 0.000001 1.614896 0.950687 0.013057 1.614893 0.950716 0.013050 -0.000002 -0.000000 0.000000 -0.000000 -0.000000 -0.000000 -0.201110 -5.896645 5.656186 -20.896646 16.537799 -57.421182 0.000022 -125.967936 0.000026 -6.999991 -6.845976 -4.072318 -2.019286 7.046691 9.786207 25.957167 35.998649 -24.947585 0.000003 -0.000000 -0.000005 18.535195 9.286145 -85.464832 7.106934 5.715148 -102.415381 -0.000000 0.000001 0.000000 11.435084 7.721828 -95.334025 6.744611 5.782654 -98.799492 0.000002 -0.000001 0.000002 4.816395 8.207994 -90.434915 7.832139 5.506561 -109.822373 -0.000003 0.000001 0.000000 -4.692548 8.357149 -90.627526 7.308713 5.667180 -104.449937 -0.000001 0.000002 0.000001 -0.000001 -0.000001 -0.000001 -0.000001 -0.000001 -0.000001 -0.000001 -0.000000 -0.000001 -0.000002 -0.000002 0.000002 -0.000002 -0.000002 0.000001 -0.000002 -0.000002 0.000002 -0.000003 -0.000002 0.000001 10.805660 26.970518 3.488914 -46.423641 37.708293 47.725530 -0.000075 110.501881 0.000095 -26.883717 15.719745 15.725843 -9.175064 -2.369916 -20.174193 25.852751 -35.876597 25.265471 -0.000000 -0.000001 -0.000001 18.475015 -7.424273 88.265613 5.525772 -4.575627 100.760590 -0.000000 0.000000 0.000004 10.387297 -6.403338 95.659026 5.329045 -4.608553 98.303921 0.000001 0.000000 -0.000000 3.905088 -6.953583 91.446712 6.407630 -4.316332 112.099626 -0.000001 -0.000005 0.000002 -5.252215 -7.002304 90.204430 5.028600 -4.642337 94.579590 -0.000001 0.000003 -0.000003 -0.000002 0.000003 -0.000001 -0.000002 0.000002 -0.000002 -0.000002 0.000003 -0.000001 0.000001 0.000003 -0.000002 -0.000000 0.000003 -0.000002 0.000001 0.000003 -0.000002 0.000000 0.000003 -0.000000 0.000001 -0.000003 0.000000 0.000001 -0.000003 0.000000 0.000001 -0.000003 0.000000 0.000001 -0.000003 0.000000 0.000001 -0.000003 0.000000 0.000001 -0.000003 0.000000 0.000001 -0.000003 0.000000 -0.000000 0.000002 0.000000 -0.000000 0.000000 0.000000 
0.995051 83.924156 2.433718 -12.693015 -51.897024 -4.751174 -0.000001 0.000000 -0.000000 -28.642318 8.550972 22.571600 50.397756 -5.612962 1.057999 -10.429762 3.131466 -16.992413 0.000000 0.000004 -0.000000 -0.000000 0.000002 -0.000002 -26.098510 3.816600 -26.640373 60.483982 3.741081 -7.615385 -21.974508 -5.372000 23.118640 -0.000000 -0.000000 -0.000000 0.000001 -0.000001 0.000000 6.858487 0.655665 -2.078442 13.643736 1.084031 -5.004140 13.649968 1.068294 -5.008937 1.422681 0.847825 0.269703 1.422690 0.847803 0.269701 -0.000000 0.000001 -0.000000 1.422755 0.847825 0.269701 1.422688 0.847821 0.269699 0.000001 0.000003 -0.000001 -0.000000 0.000001 -0.000001 -0.280797 -5.770276 6.828725 -20.834148 15.012653 -58.524783 0.000022 -125.091472 0.000030 -7.252238 -8.017945 -4.065067 -1.925707 7.217484 9.711744 26.041578 35.871406 -24.852072 0.000001 0.000001 -0.000003 17.508341 9.890031 -82.251727 7.109253 5.714646 -102.438583 -0.000001 -0.000001 -0.000001 11.084720 7.897546 -93.584568 6.719101 5.786522 -98.546386 -0.000000 0.000000 0.000000 4.856587 8.192500 -89.613393 7.868233 5.493480 -110.198880 0.000002 0.000001 0.000001 -4.655463 8.158872 -89.563547 7.289989 5.671935 -104.260468 0.000002 -0.000003 0.000000 0.000002 -0.000000 -0.000002 0.000002 -0.000000 -0.000002 0.000002 0.000000 -0.000002 0.000003 0.000001 -0.000002 0.000003 -0.000000 -0.000004 0.000003 0.000001 -0.000002 0.000002 0.000001 -0.000002 10.578794 26.771871 4.134561 -46.681676 37.839381 46.463581 0.000045 110.450962 -0.000048 -27.119196 15.637593 15.748545 -9.614173 -1.646227 -20.952049 25.744177 -34.817907 25.336115 -0.000004 -0.000002 0.000003 18.292126 -7.689564 87.148405 5.429366 -4.592841 99.554413 0.000002 0.000002 0.000003 10.199977 -6.522857 94.521212 5.252955 -4.618969 97.358186 0.000003 0.000000 -0.000004 3.806438 -6.938893 90.434259 6.390421 -4.323254 111.871183 -0.000001 0.000003 -0.000005 -5.251791 -6.905663 89.651601 4.950046 -4.647949 93.609587 0.000002 -0.000002 -0.000001 0.000001 0.000002 -0.000001 0.000001 -0.000000 0.000000 0.000001 0.000001 -0.000000 0.000000 0.000001 -0.000000 -0.000000 0.000001 -0.000000 0.000000 0.000001 -0.000000 -0.000000 0.000001 0.000001 0.000003 0.000003 -0.000000 0.000003 0.000003 -0.000000 0.000003 0.000003 -0.000000 0.000003 0.000003 -0.000000 0.000003 0.000003 -0.000000 0.000003 0.000003 -0.000000 0.000003 0.000003 -0.000000 -0.000000 0.000003 0.000000 -0.000001 0.000000 -0.000000 
